<mxfile host="app.diagrams.net" modified="2023-05-29T13:19:36.587Z" agent="Mozilla/5.0 (Macintosh; Intel Mac OS X 10_15_7) AppleWebKit/537.36 (KHTML, like Gecko) Chrome/113.0.0.0 Safari/537.36" etag="iJ6VP5xqN29CjLOnpQ1J" version="21.3.4" type="device">
  <diagram name="Page-1" id="2YBvvXClWsGukQMizWep">
    <mxGraphModel dx="954" dy="620" grid="1" gridSize="10" guides="1" tooltips="1" connect="1" arrows="1" fold="1" page="1" pageScale="1" pageWidth="850" pageHeight="1100" math="0" shadow="0">
      <root>
        <mxCell id="0" />
        <mxCell id="1" parent="0" />
        <mxCell id="aM9ryv3xv72pqoxQDRHE-1" value=":RobotNetwork&lt;br&gt;[ID: 1]" style="shape=umlLifeline;perimeter=lifelinePerimeter;whiteSpace=wrap;html=1;container=0;dropTarget=0;collapsible=0;recursiveResize=0;outlineConnect=0;portConstraint=eastwest;newEdgeStyle={&quot;edgeStyle&quot;:&quot;elbowEdgeStyle&quot;,&quot;elbow&quot;:&quot;vertical&quot;,&quot;curved&quot;:0,&quot;rounded&quot;:0};" parent="1" vertex="1">
          <mxGeometry x="100" y="90" width="100" height="1520" as="geometry" />
        </mxCell>
        <mxCell id="aM9ryv3xv72pqoxQDRHE-2" value="" style="html=1;points=[];perimeter=orthogonalPerimeter;outlineConnect=0;targetShapes=umlLifeline;portConstraint=eastwest;newEdgeStyle={&quot;edgeStyle&quot;:&quot;elbowEdgeStyle&quot;,&quot;elbow&quot;:&quot;vertical&quot;,&quot;curved&quot;:0,&quot;rounded&quot;:0};" parent="aM9ryv3xv72pqoxQDRHE-1" vertex="1">
          <mxGeometry x="45" y="70" width="10" height="170" as="geometry" />
        </mxCell>
        <mxCell id="aM9ryv3xv72pqoxQDRHE-3" value="joinNetwork" style="html=1;verticalAlign=bottom;startArrow=oval;endArrow=block;startSize=8;edgeStyle=elbowEdgeStyle;elbow=vertical;curved=0;rounded=0;" parent="aM9ryv3xv72pqoxQDRHE-1" target="aM9ryv3xv72pqoxQDRHE-2" edge="1">
          <mxGeometry relative="1" as="geometry">
            <mxPoint x="-60" y="70" as="sourcePoint" />
          </mxGeometry>
        </mxCell>
        <mxCell id="eEnLpTAZn5gdBbQ_mqBl-11" value="" style="html=1;points=[];perimeter=orthogonalPerimeter;outlineConnect=0;targetShapes=umlLifeline;portConstraint=eastwest;newEdgeStyle={&quot;edgeStyle&quot;:&quot;elbowEdgeStyle&quot;,&quot;elbow&quot;:&quot;vertical&quot;,&quot;curved&quot;:0,&quot;rounded&quot;:0};" parent="aM9ryv3xv72pqoxQDRHE-1" vertex="1">
          <mxGeometry x="55" y="100" width="10" height="130" as="geometry" />
        </mxCell>
        <mxCell id="eEnLpTAZn5gdBbQ_mqBl-12" value="welcomeAll" style="html=1;align=left;spacingLeft=2;endArrow=block;rounded=0;edgeStyle=orthogonalEdgeStyle;curved=0;rounded=0;" parent="aM9ryv3xv72pqoxQDRHE-1" target="eEnLpTAZn5gdBbQ_mqBl-11" edge="1">
          <mxGeometry relative="1" as="geometry">
            <mxPoint x="60" y="80" as="sourcePoint" />
            <Array as="points">
              <mxPoint x="90" y="110" />
            </Array>
          </mxGeometry>
        </mxCell>
        <mxCell id="eEnLpTAZn5gdBbQ_mqBl-40" value="" style="html=1;points=[];perimeter=orthogonalPerimeter;outlineConnect=0;targetShapes=umlLifeline;portConstraint=eastwest;newEdgeStyle={&quot;edgeStyle&quot;:&quot;elbowEdgeStyle&quot;,&quot;elbow&quot;:&quot;vertical&quot;,&quot;curved&quot;:0,&quot;rounded&quot;:0};" parent="aM9ryv3xv72pqoxQDRHE-1" vertex="1">
          <mxGeometry x="45" y="290.37" width="10" height="99.63" as="geometry" />
        </mxCell>
        <mxCell id="szoef-TnUOMJRLs9W9GJ-12" value="" style="html=1;points=[];perimeter=orthogonalPerimeter;outlineConnect=0;targetShapes=umlLifeline;portConstraint=eastwest;newEdgeStyle={&quot;edgeStyle&quot;:&quot;elbowEdgeStyle&quot;,&quot;elbow&quot;:&quot;vertical&quot;,&quot;curved&quot;:0,&quot;rounded&quot;:0};" parent="aM9ryv3xv72pqoxQDRHE-1" vertex="1">
          <mxGeometry x="45" y="400" width="10" height="350" as="geometry" />
        </mxCell>
        <mxCell id="szoef-TnUOMJRLs9W9GJ-13" value="startMaintenance" style="html=1;align=left;spacingLeft=2;endArrow=block;rounded=0;edgeStyle=orthogonalEdgeStyle;curved=0;rounded=0;" parent="aM9ryv3xv72pqoxQDRHE-1" source="eEnLpTAZn5gdBbQ_mqBl-40" target="szoef-TnUOMJRLs9W9GJ-12" edge="1">
          <mxGeometry relative="1" as="geometry">
            <mxPoint x="50" y="400" as="sourcePoint" />
            <Array as="points">
              <mxPoint x="80" y="390" />
              <mxPoint x="80" y="410" />
            </Array>
          </mxGeometry>
        </mxCell>
        <mxCell id="szoef-TnUOMJRLs9W9GJ-21" value="" style="html=1;points=[];perimeter=orthogonalPerimeter;outlineConnect=0;targetShapes=umlLifeline;portConstraint=eastwest;newEdgeStyle={&quot;edgeStyle&quot;:&quot;elbowEdgeStyle&quot;,&quot;elbow&quot;:&quot;vertical&quot;,&quot;curved&quot;:0,&quot;rounded&quot;:0};" parent="aM9ryv3xv72pqoxQDRHE-1" vertex="1">
          <mxGeometry x="55" y="430" width="10" height="80" as="geometry" />
        </mxCell>
        <mxCell id="szoef-TnUOMJRLs9W9GJ-39" value="" style="html=1;points=[];perimeter=orthogonalPerimeter;outlineConnect=0;targetShapes=umlLifeline;portConstraint=eastwest;newEdgeStyle={&quot;edgeStyle&quot;:&quot;elbowEdgeStyle&quot;,&quot;elbow&quot;:&quot;vertical&quot;,&quot;curved&quot;:0,&quot;rounded&quot;:0};" parent="aM9ryv3xv72pqoxQDRHE-1" vertex="1">
          <mxGeometry x="55" y="590" width="10" height="30" as="geometry" />
        </mxCell>
        <mxCell id="szoef-TnUOMJRLs9W9GJ-66" value="" style="html=1;points=[];perimeter=orthogonalPerimeter;outlineConnect=0;targetShapes=umlLifeline;portConstraint=eastwest;newEdgeStyle={&quot;edgeStyle&quot;:&quot;elbowEdgeStyle&quot;,&quot;elbow&quot;:&quot;vertical&quot;,&quot;curved&quot;:0,&quot;rounded&quot;:0};" parent="aM9ryv3xv72pqoxQDRHE-1" vertex="1">
          <mxGeometry x="45" y="970" width="10" height="80" as="geometry" />
        </mxCell>
        <mxCell id="szoef-TnUOMJRLs9W9GJ-73" value="" style="html=1;points=[];perimeter=orthogonalPerimeter;outlineConnect=0;targetShapes=umlLifeline;portConstraint=eastwest;newEdgeStyle={&quot;edgeStyle&quot;:&quot;elbowEdgeStyle&quot;,&quot;elbow&quot;:&quot;vertical&quot;,&quot;curved&quot;:0,&quot;rounded&quot;:0};" parent="aM9ryv3xv72pqoxQDRHE-1" vertex="1">
          <mxGeometry x="45" y="1140" width="10" height="30" as="geometry" />
        </mxCell>
        <mxCell id="szoef-TnUOMJRLs9W9GJ-86" value="" style="html=1;points=[];perimeter=orthogonalPerimeter;outlineConnect=0;targetShapes=umlLifeline;portConstraint=eastwest;newEdgeStyle={&quot;edgeStyle&quot;:&quot;elbowEdgeStyle&quot;,&quot;elbow&quot;:&quot;vertical&quot;,&quot;curved&quot;:0,&quot;rounded&quot;:0};" parent="aM9ryv3xv72pqoxQDRHE-1" vertex="1">
          <mxGeometry x="45" y="1200" width="10" height="30" as="geometry" />
        </mxCell>
        <mxCell id="eEnLpTAZn5gdBbQ_mqBl-1" value=":RobotNetwork&lt;br&gt;[ID: 2]" style="shape=umlLifeline;perimeter=lifelinePerimeter;whiteSpace=wrap;html=1;container=0;dropTarget=0;collapsible=0;recursiveResize=0;outlineConnect=0;portConstraint=eastwest;newEdgeStyle={&quot;edgeStyle&quot;:&quot;elbowEdgeStyle&quot;,&quot;elbow&quot;:&quot;vertical&quot;,&quot;curved&quot;:0,&quot;rounded&quot;:0};" parent="1" vertex="1">
          <mxGeometry x="300" y="90" width="100" height="1390" as="geometry" />
        </mxCell>
        <mxCell id="eEnLpTAZn5gdBbQ_mqBl-2" value="" style="html=1;points=[];perimeter=orthogonalPerimeter;outlineConnect=0;targetShapes=umlLifeline;portConstraint=eastwest;newEdgeStyle={&quot;edgeStyle&quot;:&quot;elbowEdgeStyle&quot;,&quot;elbow&quot;:&quot;vertical&quot;,&quot;curved&quot;:0,&quot;rounded&quot;:0};" parent="eEnLpTAZn5gdBbQ_mqBl-1" vertex="1">
          <mxGeometry x="45" y="110" width="10" height="40" as="geometry" />
        </mxCell>
        <mxCell id="szoef-TnUOMJRLs9W9GJ-3" value="" style="html=1;points=[];perimeter=orthogonalPerimeter;outlineConnect=0;targetShapes=umlLifeline;portConstraint=eastwest;newEdgeStyle={&quot;edgeStyle&quot;:&quot;elbowEdgeStyle&quot;,&quot;elbow&quot;:&quot;vertical&quot;,&quot;curved&quot;:0,&quot;rounded&quot;:0};" parent="eEnLpTAZn5gdBbQ_mqBl-1" vertex="1">
          <mxGeometry x="45" y="290.37" width="10" height="80" as="geometry" />
        </mxCell>
        <mxCell id="szoef-TnUOMJRLs9W9GJ-19" value="" style="html=1;points=[];perimeter=orthogonalPerimeter;outlineConnect=0;targetShapes=umlLifeline;portConstraint=eastwest;newEdgeStyle={&quot;edgeStyle&quot;:&quot;elbowEdgeStyle&quot;,&quot;elbow&quot;:&quot;vertical&quot;,&quot;curved&quot;:0,&quot;rounded&quot;:0};" parent="eEnLpTAZn5gdBbQ_mqBl-1" vertex="1">
          <mxGeometry x="45" y="450" width="10" height="80" as="geometry" />
        </mxCell>
        <mxCell id="szoef-TnUOMJRLs9W9GJ-33" value="" style="html=1;points=[];perimeter=orthogonalPerimeter;outlineConnect=0;targetShapes=umlLifeline;portConstraint=eastwest;newEdgeStyle={&quot;edgeStyle&quot;:&quot;elbowEdgeStyle&quot;,&quot;elbow&quot;:&quot;vertical&quot;,&quot;curved&quot;:0,&quot;rounded&quot;:0};" parent="eEnLpTAZn5gdBbQ_mqBl-1" vertex="1">
          <mxGeometry x="45" y="560" width="10" height="200" as="geometry" />
        </mxCell>
        <mxCell id="szoef-TnUOMJRLs9W9GJ-47" value="" style="html=1;points=[];perimeter=orthogonalPerimeter;outlineConnect=0;targetShapes=umlLifeline;portConstraint=eastwest;newEdgeStyle={&quot;edgeStyle&quot;:&quot;elbowEdgeStyle&quot;,&quot;elbow&quot;:&quot;vertical&quot;,&quot;curved&quot;:0,&quot;rounded&quot;:0};" parent="eEnLpTAZn5gdBbQ_mqBl-1" vertex="1">
          <mxGeometry x="45" y="770" width="10" height="80" as="geometry" />
        </mxCell>
        <mxCell id="szoef-TnUOMJRLs9W9GJ-48" value="retry" style="html=1;align=left;spacingLeft=2;endArrow=block;rounded=0;edgeStyle=orthogonalEdgeStyle;curved=0;rounded=0;" parent="eEnLpTAZn5gdBbQ_mqBl-1" source="szoef-TnUOMJRLs9W9GJ-33" target="szoef-TnUOMJRLs9W9GJ-47" edge="1">
          <mxGeometry relative="1" as="geometry">
            <mxPoint x="60" y="770" as="sourcePoint" />
            <Array as="points">
              <mxPoint x="90" y="760" />
              <mxPoint x="90" y="780" />
            </Array>
          </mxGeometry>
        </mxCell>
        <mxCell id="szoef-TnUOMJRLs9W9GJ-51" value="" style="html=1;points=[];perimeter=orthogonalPerimeter;outlineConnect=0;targetShapes=umlLifeline;portConstraint=eastwest;newEdgeStyle={&quot;edgeStyle&quot;:&quot;elbowEdgeStyle&quot;,&quot;elbow&quot;:&quot;vertical&quot;,&quot;curved&quot;:0,&quot;rounded&quot;:0};" parent="eEnLpTAZn5gdBbQ_mqBl-1" vertex="1">
          <mxGeometry x="45" y="880" width="10" height="230" as="geometry" />
        </mxCell>
        <mxCell id="szoef-TnUOMJRLs9W9GJ-52" value="startMaintenance" style="html=1;align=left;spacingLeft=2;endArrow=block;rounded=0;edgeStyle=orthogonalEdgeStyle;curved=0;rounded=0;" parent="eEnLpTAZn5gdBbQ_mqBl-1" source="szoef-TnUOMJRLs9W9GJ-47" target="szoef-TnUOMJRLs9W9GJ-51" edge="1">
          <mxGeometry relative="1" as="geometry">
            <mxPoint x="50" y="870" as="sourcePoint" />
            <Array as="points">
              <mxPoint x="80" y="850" />
              <mxPoint x="80" y="890" />
            </Array>
          </mxGeometry>
        </mxCell>
        <mxCell id="szoef-TnUOMJRLs9W9GJ-56" value="" style="html=1;points=[];perimeter=orthogonalPerimeter;outlineConnect=0;targetShapes=umlLifeline;portConstraint=eastwest;newEdgeStyle={&quot;edgeStyle&quot;:&quot;elbowEdgeStyle&quot;,&quot;elbow&quot;:&quot;vertical&quot;,&quot;curved&quot;:0,&quot;rounded&quot;:0};" parent="eEnLpTAZn5gdBbQ_mqBl-1" vertex="1">
          <mxGeometry x="35" y="1080" width="10" height="80" as="geometry" />
        </mxCell>
        <mxCell id="szoef-TnUOMJRLs9W9GJ-67" value="" style="html=1;points=[];perimeter=orthogonalPerimeter;outlineConnect=0;targetShapes=umlLifeline;portConstraint=eastwest;newEdgeStyle={&quot;edgeStyle&quot;:&quot;elbowEdgeStyle&quot;,&quot;elbow&quot;:&quot;vertical&quot;,&quot;curved&quot;:0,&quot;rounded&quot;:0};" parent="eEnLpTAZn5gdBbQ_mqBl-1" vertex="1">
          <mxGeometry x="55" y="960" width="10" height="80" as="geometry" />
        </mxCell>
        <mxCell id="szoef-TnUOMJRLs9W9GJ-88" value="" style="html=1;points=[];perimeter=orthogonalPerimeter;outlineConnect=0;targetShapes=umlLifeline;portConstraint=eastwest;newEdgeStyle={&quot;edgeStyle&quot;:&quot;elbowEdgeStyle&quot;,&quot;elbow&quot;:&quot;vertical&quot;,&quot;curved&quot;:0,&quot;rounded&quot;:0};" parent="eEnLpTAZn5gdBbQ_mqBl-1" vertex="1">
          <mxGeometry x="45" y="1180" width="10" height="20" as="geometry" />
        </mxCell>
        <mxCell id="eEnLpTAZn5gdBbQ_mqBl-4" value=":RobotNetwork&lt;br&gt;[ID: 4]" style="shape=umlLifeline;perimeter=lifelinePerimeter;whiteSpace=wrap;html=1;container=0;dropTarget=0;collapsible=0;recursiveResize=0;outlineConnect=0;portConstraint=eastwest;newEdgeStyle={&quot;edgeStyle&quot;:&quot;elbowEdgeStyle&quot;,&quot;elbow&quot;:&quot;vertical&quot;,&quot;curved&quot;:0,&quot;rounded&quot;:0};" parent="1" vertex="1">
          <mxGeometry x="660" y="90" width="100" height="1560" as="geometry" />
        </mxCell>
        <mxCell id="eEnLpTAZn5gdBbQ_mqBl-16" value="" style="html=1;points=[];perimeter=orthogonalPerimeter;outlineConnect=0;targetShapes=umlLifeline;portConstraint=eastwest;newEdgeStyle={&quot;edgeStyle&quot;:&quot;elbowEdgeStyle&quot;,&quot;elbow&quot;:&quot;vertical&quot;,&quot;curved&quot;:0,&quot;rounded&quot;:0};" parent="eEnLpTAZn5gdBbQ_mqBl-4" vertex="1">
          <mxGeometry x="45" y="190" width="10" height="40" as="geometry" />
        </mxCell>
        <mxCell id="eEnLpTAZn5gdBbQ_mqBl-42" value="" style="html=1;points=[];perimeter=orthogonalPerimeter;outlineConnect=0;targetShapes=umlLifeline;portConstraint=eastwest;newEdgeStyle={&quot;edgeStyle&quot;:&quot;elbowEdgeStyle&quot;,&quot;elbow&quot;:&quot;vertical&quot;,&quot;curved&quot;:0,&quot;rounded&quot;:0};" parent="eEnLpTAZn5gdBbQ_mqBl-4" vertex="1">
          <mxGeometry x="45" y="290.37" width="10" height="89.63" as="geometry" />
        </mxCell>
        <mxCell id="szoef-TnUOMJRLs9W9GJ-17" value="" style="html=1;points=[];perimeter=orthogonalPerimeter;outlineConnect=0;targetShapes=umlLifeline;portConstraint=eastwest;newEdgeStyle={&quot;edgeStyle&quot;:&quot;elbowEdgeStyle&quot;,&quot;elbow&quot;:&quot;vertical&quot;,&quot;curved&quot;:0,&quot;rounded&quot;:0};" parent="eEnLpTAZn5gdBbQ_mqBl-4" vertex="1">
          <mxGeometry x="45" y="440" width="10" height="70" as="geometry" />
        </mxCell>
        <mxCell id="szoef-TnUOMJRLs9W9GJ-37" value="" style="html=1;points=[];perimeter=orthogonalPerimeter;outlineConnect=0;targetShapes=umlLifeline;portConstraint=eastwest;newEdgeStyle={&quot;edgeStyle&quot;:&quot;elbowEdgeStyle&quot;,&quot;elbow&quot;:&quot;vertical&quot;,&quot;curved&quot;:0,&quot;rounded&quot;:0};" parent="eEnLpTAZn5gdBbQ_mqBl-4" vertex="1">
          <mxGeometry x="45" y="580" width="10" height="40" as="geometry" />
        </mxCell>
        <mxCell id="szoef-TnUOMJRLs9W9GJ-58" value="" style="html=1;points=[];perimeter=orthogonalPerimeter;outlineConnect=0;targetShapes=umlLifeline;portConstraint=eastwest;newEdgeStyle={&quot;edgeStyle&quot;:&quot;elbowEdgeStyle&quot;,&quot;elbow&quot;:&quot;vertical&quot;,&quot;curved&quot;:0,&quot;rounded&quot;:0};" parent="eEnLpTAZn5gdBbQ_mqBl-4" vertex="1">
          <mxGeometry x="35" y="1100" width="10" height="20" as="geometry" />
        </mxCell>
        <mxCell id="szoef-TnUOMJRLs9W9GJ-60" value="" style="html=1;points=[];perimeter=orthogonalPerimeter;outlineConnect=0;targetShapes=umlLifeline;portConstraint=eastwest;newEdgeStyle={&quot;edgeStyle&quot;:&quot;elbowEdgeStyle&quot;,&quot;elbow&quot;:&quot;vertical&quot;,&quot;curved&quot;:0,&quot;rounded&quot;:0};" parent="eEnLpTAZn5gdBbQ_mqBl-4" vertex="1">
          <mxGeometry x="45" y="920" width="10" height="350" as="geometry" />
        </mxCell>
        <mxCell id="szoef-TnUOMJRLs9W9GJ-92" value="" style="html=1;points=[];perimeter=orthogonalPerimeter;outlineConnect=0;targetShapes=umlLifeline;portConstraint=eastwest;newEdgeStyle={&quot;edgeStyle&quot;:&quot;elbowEdgeStyle&quot;,&quot;elbow&quot;:&quot;vertical&quot;,&quot;curved&quot;:0,&quot;rounded&quot;:0};" parent="eEnLpTAZn5gdBbQ_mqBl-4" vertex="1">
          <mxGeometry x="55" y="1130" width="10" height="130" as="geometry" />
        </mxCell>
        <mxCell id="szoef-TnUOMJRLs9W9GJ-98" value="" style="html=1;points=[];perimeter=orthogonalPerimeter;outlineConnect=0;targetShapes=umlLifeline;portConstraint=eastwest;newEdgeStyle={&quot;edgeStyle&quot;:&quot;elbowEdgeStyle&quot;,&quot;elbow&quot;:&quot;vertical&quot;,&quot;curved&quot;:0,&quot;rounded&quot;:0};" parent="eEnLpTAZn5gdBbQ_mqBl-4" vertex="1">
          <mxGeometry x="45" y="1390" width="10" height="40" as="geometry" />
        </mxCell>
        <mxCell id="szoef-TnUOMJRLs9W9GJ-99" value="startMaintenance" style="html=1;align=left;spacingLeft=2;endArrow=block;rounded=0;edgeStyle=orthogonalEdgeStyle;curved=0;rounded=0;" parent="eEnLpTAZn5gdBbQ_mqBl-4" source="MS7MLj-lTrGI62MglVnT-1" target="szoef-TnUOMJRLs9W9GJ-98" edge="1">
          <mxGeometry relative="1" as="geometry">
            <mxPoint x="50" y="1320" as="sourcePoint" />
            <Array as="points">
              <mxPoint x="80" y="1380" />
              <mxPoint x="80" y="1390" />
            </Array>
          </mxGeometry>
        </mxCell>
        <mxCell id="MS7MLj-lTrGI62MglVnT-2" value="retry" style="html=1;align=left;spacingLeft=2;endArrow=block;rounded=0;edgeStyle=orthogonalEdgeStyle;curved=0;rounded=0;" edge="1" target="MS7MLj-lTrGI62MglVnT-1" parent="eEnLpTAZn5gdBbQ_mqBl-4" source="szoef-TnUOMJRLs9W9GJ-60">
          <mxGeometry relative="1" as="geometry">
            <mxPoint x="60" y="1270" as="sourcePoint" />
            <Array as="points">
              <mxPoint x="90" y="1270" />
              <mxPoint x="90" y="1310" />
            </Array>
          </mxGeometry>
        </mxCell>
        <mxCell id="MS7MLj-lTrGI62MglVnT-1" value="" style="html=1;points=[];perimeter=orthogonalPerimeter;outlineConnect=0;targetShapes=umlLifeline;portConstraint=eastwest;newEdgeStyle={&quot;edgeStyle&quot;:&quot;elbowEdgeStyle&quot;,&quot;elbow&quot;:&quot;vertical&quot;,&quot;curved&quot;:0,&quot;rounded&quot;:0};" vertex="1" parent="eEnLpTAZn5gdBbQ_mqBl-4">
          <mxGeometry x="45" y="1280" width="10" height="100" as="geometry" />
        </mxCell>
        <mxCell id="eEnLpTAZn5gdBbQ_mqBl-14" value="WELOCME" style="html=1;verticalAlign=bottom;endArrow=block;edgeStyle=elbowEdgeStyle;elbow=vertical;curved=0;rounded=0;" parent="1" source="eEnLpTAZn5gdBbQ_mqBl-11" target="eEnLpTAZn5gdBbQ_mqBl-2" edge="1">
          <mxGeometry relative="1" as="geometry">
            <mxPoint x="265" y="210" as="sourcePoint" />
            <mxPoint x="335" y="210" as="targetPoint" />
            <Array as="points">
              <mxPoint x="290" y="210" />
            </Array>
          </mxGeometry>
        </mxCell>
        <mxCell id="eEnLpTAZn5gdBbQ_mqBl-17" value="WELOCME" style="html=1;verticalAlign=bottom;endArrow=block;edgeStyle=elbowEdgeStyle;elbow=vertical;curved=0;rounded=0;" parent="1" source="eEnLpTAZn5gdBbQ_mqBl-11" target="eEnLpTAZn5gdBbQ_mqBl-16" edge="1">
          <mxGeometry relative="1" as="geometry">
            <mxPoint x="175" y="220" as="sourcePoint" />
            <Array as="points">
              <mxPoint x="520" y="300" />
              <mxPoint x="330" y="295" />
              <mxPoint x="270" y="240" />
              <mxPoint x="160" y="250" />
              <mxPoint x="300" y="220" />
            </Array>
          </mxGeometry>
        </mxCell>
        <mxCell id="eEnLpTAZn5gdBbQ_mqBl-21" value="WELCOME" style="text;html=1;strokeColor=none;fillColor=none;align=left;verticalAlign=middle;whiteSpace=wrap;rounded=0;" parent="1" vertex="1">
          <mxGeometry x="40" y="40" width="380" height="30" as="geometry" />
        </mxCell>
        <mxCell id="eEnLpTAZn5gdBbQ_mqBl-38" value="MAINTENANCE" style="text;html=1;strokeColor=none;fillColor=none;align=left;verticalAlign=middle;whiteSpace=wrap;rounded=0;" parent="1" vertex="1">
          <mxGeometry x="40" y="330" width="380" height="30" as="geometry" />
        </mxCell>
        <mxCell id="eEnLpTAZn5gdBbQ_mqBl-39" value="askForMaintenance" style="html=1;verticalAlign=bottom;startArrow=oval;startFill=1;endArrow=block;startSize=8;edgeStyle=elbowEdgeStyle;elbow=vertical;curved=0;rounded=0;" parent="1" target="eEnLpTAZn5gdBbQ_mqBl-40" edge="1">
          <mxGeometry width="60" relative="1" as="geometry">
            <mxPoint x="40" y="380.37" as="sourcePoint" />
            <mxPoint x="100" y="380.37" as="targetPoint" />
          </mxGeometry>
        </mxCell>
        <mxCell id="eEnLpTAZn5gdBbQ_mqBl-41" value="MAINTENANCE" style="html=1;verticalAlign=bottom;endArrow=block;edgeStyle=elbowEdgeStyle;elbow=vertical;curved=0;rounded=0;" parent="1" source="eEnLpTAZn5gdBbQ_mqBl-40" target="eEnLpTAZn5gdBbQ_mqBl-42" edge="1">
          <mxGeometry width="80" relative="1" as="geometry">
            <mxPoint x="230" y="390.37" as="sourcePoint" />
            <mxPoint x="310" y="390.37" as="targetPoint" />
            <Array as="points">
              <mxPoint x="610" y="420" />
              <mxPoint x="610" y="490" />
              <mxPoint x="410" y="390.37" />
            </Array>
          </mxGeometry>
        </mxCell>
        <mxCell id="eEnLpTAZn5gdBbQ_mqBl-63" value=":RobotNetwork&lt;br&gt;[ID: 3]" style="shape=umlLifeline;perimeter=lifelinePerimeter;whiteSpace=wrap;html=1;container=0;dropTarget=0;collapsible=0;recursiveResize=0;outlineConnect=0;portConstraint=eastwest;newEdgeStyle={&quot;edgeStyle&quot;:&quot;elbowEdgeStyle&quot;,&quot;elbow&quot;:&quot;vertical&quot;,&quot;curved&quot;:0,&quot;rounded&quot;:0};" parent="1" vertex="1">
          <mxGeometry x="480" y="90" width="100" height="820" as="geometry" />
        </mxCell>
        <mxCell id="eEnLpTAZn5gdBbQ_mqBl-64" value="" style="html=1;points=[];perimeter=orthogonalPerimeter;outlineConnect=0;targetShapes=umlLifeline;portConstraint=eastwest;newEdgeStyle={&quot;edgeStyle&quot;:&quot;elbowEdgeStyle&quot;,&quot;elbow&quot;:&quot;vertical&quot;,&quot;curved&quot;:0,&quot;rounded&quot;:0};" parent="eEnLpTAZn5gdBbQ_mqBl-63" vertex="1">
          <mxGeometry x="45" y="150" width="10" height="40" as="geometry" />
        </mxCell>
        <mxCell id="szoef-TnUOMJRLs9W9GJ-5" value="" style="html=1;points=[];perimeter=orthogonalPerimeter;outlineConnect=0;targetShapes=umlLifeline;portConstraint=eastwest;newEdgeStyle={&quot;edgeStyle&quot;:&quot;elbowEdgeStyle&quot;,&quot;elbow&quot;:&quot;vertical&quot;,&quot;curved&quot;:0,&quot;rounded&quot;:0};" parent="eEnLpTAZn5gdBbQ_mqBl-63" vertex="1">
          <mxGeometry x="45" y="290.37" width="10" height="80" as="geometry" />
        </mxCell>
        <mxCell id="szoef-TnUOMJRLs9W9GJ-15" value="" style="html=1;points=[];perimeter=orthogonalPerimeter;outlineConnect=0;targetShapes=umlLifeline;portConstraint=eastwest;newEdgeStyle={&quot;edgeStyle&quot;:&quot;elbowEdgeStyle&quot;,&quot;elbow&quot;:&quot;vertical&quot;,&quot;curved&quot;:0,&quot;rounded&quot;:0};" parent="eEnLpTAZn5gdBbQ_mqBl-63" vertex="1">
          <mxGeometry x="45" y="410" width="10" height="340" as="geometry" />
        </mxCell>
        <mxCell id="szoef-TnUOMJRLs9W9GJ-35" value="" style="html=1;points=[];perimeter=orthogonalPerimeter;outlineConnect=0;targetShapes=umlLifeline;portConstraint=eastwest;newEdgeStyle={&quot;edgeStyle&quot;:&quot;elbowEdgeStyle&quot;,&quot;elbow&quot;:&quot;vertical&quot;,&quot;curved&quot;:0,&quot;rounded&quot;:0};" parent="eEnLpTAZn5gdBbQ_mqBl-63" vertex="1">
          <mxGeometry x="35" y="560" width="10" height="60" as="geometry" />
        </mxCell>
        <mxCell id="szoef-TnUOMJRLs9W9GJ-43" value="" style="html=1;points=[];perimeter=orthogonalPerimeter;outlineConnect=0;targetShapes=umlLifeline;portConstraint=eastwest;newEdgeStyle={&quot;edgeStyle&quot;:&quot;elbowEdgeStyle&quot;,&quot;elbow&quot;:&quot;vertical&quot;,&quot;curved&quot;:0,&quot;rounded&quot;:0};" parent="eEnLpTAZn5gdBbQ_mqBl-63" vertex="1">
          <mxGeometry x="45" y="760" width="10" height="40" as="geometry" />
        </mxCell>
        <mxCell id="szoef-TnUOMJRLs9W9GJ-44" value="startMaintenance" style="html=1;align=left;spacingLeft=2;endArrow=block;rounded=0;edgeStyle=orthogonalEdgeStyle;curved=0;rounded=0;" parent="eEnLpTAZn5gdBbQ_mqBl-63" source="szoef-TnUOMJRLs9W9GJ-15" target="szoef-TnUOMJRLs9W9GJ-43" edge="1">
          <mxGeometry relative="1" as="geometry">
            <mxPoint x="50" y="760" as="sourcePoint" />
            <Array as="points">
              <mxPoint x="80" y="730" />
              <mxPoint x="80" y="760" />
            </Array>
          </mxGeometry>
        </mxCell>
        <mxCell id="szoef-TnUOMJRLs9W9GJ-46" value="" style="shape=umlDestroy;whiteSpace=wrap;html=1;strokeWidth=3;targetShapes=umlLifeline;" parent="eEnLpTAZn5gdBbQ_mqBl-63" vertex="1">
          <mxGeometry x="35" y="800" width="30" height="30" as="geometry" />
        </mxCell>
        <mxCell id="eEnLpTAZn5gdBbQ_mqBl-66" value="WELOCME" style="html=1;verticalAlign=bottom;endArrow=block;edgeStyle=elbowEdgeStyle;elbow=vertical;curved=0;rounded=0;" parent="1" source="eEnLpTAZn5gdBbQ_mqBl-11" target="eEnLpTAZn5gdBbQ_mqBl-64" edge="1">
          <mxGeometry width="80" relative="1" as="geometry">
            <mxPoint x="385" y="260" as="sourcePoint" />
            <mxPoint x="465" y="260" as="targetPoint" />
          </mxGeometry>
        </mxCell>
        <mxCell id="szoef-TnUOMJRLs9W9GJ-1" value="NOTE: &lt;br&gt;ALL MESSAGE ARE ASYNC" style="text;html=1;strokeColor=none;fillColor=none;align=left;verticalAlign=top;whiteSpace=wrap;rounded=0;" parent="1" vertex="1">
          <mxGeometry x="730" y="160" width="120" height="130" as="geometry" />
        </mxCell>
        <mxCell id="szoef-TnUOMJRLs9W9GJ-2" value="MAINTENANCE" style="html=1;verticalAlign=bottom;endArrow=block;edgeStyle=elbowEdgeStyle;elbow=vertical;curved=0;rounded=0;" parent="1" source="eEnLpTAZn5gdBbQ_mqBl-40" target="szoef-TnUOMJRLs9W9GJ-3" edge="1">
          <mxGeometry width="80" relative="1" as="geometry">
            <mxPoint x="430" y="340" as="sourcePoint" />
            <mxPoint x="510" y="340" as="targetPoint" />
            <Array as="points">
              <mxPoint x="320" y="380" />
            </Array>
          </mxGeometry>
        </mxCell>
        <mxCell id="szoef-TnUOMJRLs9W9GJ-4" value="MAINTENANCE" style="html=1;verticalAlign=bottom;endArrow=block;edgeStyle=elbowEdgeStyle;elbow=vertical;curved=0;rounded=0;" parent="1" source="eEnLpTAZn5gdBbQ_mqBl-40" target="szoef-TnUOMJRLs9W9GJ-5" edge="1">
          <mxGeometry width="80" relative="1" as="geometry">
            <mxPoint x="430" y="340" as="sourcePoint" />
            <mxPoint x="510" y="340" as="targetPoint" />
            <Array as="points">
              <mxPoint x="480" y="400" />
            </Array>
          </mxGeometry>
        </mxCell>
        <mxCell id="szoef-TnUOMJRLs9W9GJ-8" value="USING RICART AND AGRAWALA&lt;br&gt;&lt;br&gt;IF P != Q &lt;br&gt;&lt;span style=&quot;white-space: pre;&quot;&gt; &lt;/span&gt;AND (NOT USING R OR NOT WANT R)&lt;br&gt;&lt;span style=&quot;white-space: pre;&quot;&gt; &lt;/span&gt;&lt;br&gt;&lt;span style=&quot;white-space: pre;&quot;&gt; &lt;/span&gt;RESPOND OK" style="text;html=1;strokeColor=none;fillColor=none;align=left;verticalAlign=top;whiteSpace=wrap;rounded=0;" parent="1" vertex="1">
          <mxGeometry x="730" y="340" width="120" height="130" as="geometry" />
        </mxCell>
        <mxCell id="szoef-TnUOMJRLs9W9GJ-9" value="OK" style="html=1;verticalAlign=bottom;endArrow=open;dashed=1;endSize=8;edgeStyle=elbowEdgeStyle;elbow=vertical;curved=0;rounded=0;" parent="1" source="szoef-TnUOMJRLs9W9GJ-3" target="eEnLpTAZn5gdBbQ_mqBl-40" edge="1">
          <mxGeometry relative="1" as="geometry">
            <mxPoint x="310" y="440" as="sourcePoint" />
            <mxPoint x="230" y="440" as="targetPoint" />
            <Array as="points">
              <mxPoint x="270" y="440" />
            </Array>
          </mxGeometry>
        </mxCell>
        <mxCell id="szoef-TnUOMJRLs9W9GJ-10" value="OK" style="html=1;verticalAlign=bottom;endArrow=open;dashed=1;endSize=8;edgeStyle=elbowEdgeStyle;elbow=vertical;curved=0;rounded=0;" parent="1" source="szoef-TnUOMJRLs9W9GJ-5" target="eEnLpTAZn5gdBbQ_mqBl-40" edge="1">
          <mxGeometry relative="1" as="geometry">
            <mxPoint x="355" y="450" as="sourcePoint" />
            <mxPoint x="165" y="450" as="targetPoint" />
            <Array as="points">
              <mxPoint x="280" y="450" />
            </Array>
          </mxGeometry>
        </mxCell>
        <mxCell id="szoef-TnUOMJRLs9W9GJ-11" value="OK" style="html=1;verticalAlign=bottom;endArrow=open;dashed=1;endSize=8;edgeStyle=elbowEdgeStyle;elbow=vertical;curved=0;rounded=0;" parent="1" source="eEnLpTAZn5gdBbQ_mqBl-42" target="eEnLpTAZn5gdBbQ_mqBl-40" edge="1">
          <mxGeometry relative="1" as="geometry">
            <mxPoint x="535" y="460" as="sourcePoint" />
            <mxPoint x="165" y="460" as="targetPoint" />
            <Array as="points">
              <mxPoint x="290" y="460" />
            </Array>
          </mxGeometry>
        </mxCell>
        <mxCell id="szoef-TnUOMJRLs9W9GJ-14" value="askForMaintenance" style="html=1;verticalAlign=bottom;startArrow=oval;startFill=1;endArrow=block;startSize=8;edgeStyle=elbowEdgeStyle;elbow=vertical;curved=0;rounded=0;" parent="1" target="szoef-TnUOMJRLs9W9GJ-15" edge="1">
          <mxGeometry width="60" relative="1" as="geometry">
            <mxPoint x="390" y="500.37" as="sourcePoint" />
            <mxPoint x="500" y="500" as="targetPoint" />
          </mxGeometry>
        </mxCell>
        <mxCell id="szoef-TnUOMJRLs9W9GJ-16" value="MAINTENANCE" style="html=1;verticalAlign=bottom;endArrow=block;edgeStyle=elbowEdgeStyle;elbow=vertical;curved=0;rounded=0;" parent="1" source="szoef-TnUOMJRLs9W9GJ-15" target="szoef-TnUOMJRLs9W9GJ-17" edge="1">
          <mxGeometry width="80" relative="1" as="geometry">
            <mxPoint x="420" y="500" as="sourcePoint" />
            <mxPoint x="500" y="500" as="targetPoint" />
            <Array as="points">
              <mxPoint x="560" y="530" />
            </Array>
          </mxGeometry>
        </mxCell>
        <mxCell id="szoef-TnUOMJRLs9W9GJ-18" value="MAINTENANCE" style="html=1;verticalAlign=bottom;endArrow=block;edgeStyle=elbowEdgeStyle;elbow=vertical;curved=0;rounded=0;" parent="1" source="szoef-TnUOMJRLs9W9GJ-15" target="szoef-TnUOMJRLs9W9GJ-19" edge="1">
          <mxGeometry width="80" relative="1" as="geometry">
            <mxPoint x="420" y="500" as="sourcePoint" />
            <mxPoint x="500" y="500" as="targetPoint" />
            <Array as="points">
              <mxPoint x="480" y="540" />
            </Array>
            <mxPoint as="offset" />
          </mxGeometry>
        </mxCell>
        <mxCell id="szoef-TnUOMJRLs9W9GJ-20" value="MAINTENANCE" style="html=1;verticalAlign=bottom;endArrow=block;edgeStyle=elbowEdgeStyle;elbow=vertical;curved=0;rounded=0;" parent="1" source="szoef-TnUOMJRLs9W9GJ-15" target="szoef-TnUOMJRLs9W9GJ-21" edge="1">
          <mxGeometry width="80" relative="1" as="geometry">
            <mxPoint x="420" y="500" as="sourcePoint" />
            <mxPoint x="500" y="500" as="targetPoint" />
            <Array as="points">
              <mxPoint x="240" y="520" />
            </Array>
          </mxGeometry>
        </mxCell>
        <mxCell id="szoef-TnUOMJRLs9W9GJ-22" value="IS USING R&lt;br&gt;QUEUE=[3]" style="text;html=1;strokeColor=none;fillColor=none;align=left;verticalAlign=top;whiteSpace=wrap;rounded=0;" parent="1" vertex="1">
          <mxGeometry x="180" y="540" width="140" height="80" as="geometry" />
        </mxCell>
        <mxCell id="szoef-TnUOMJRLs9W9GJ-23" value="OK" style="html=1;verticalAlign=bottom;endArrow=open;dashed=1;endSize=8;edgeStyle=elbowEdgeStyle;elbow=vertical;curved=0;rounded=0;" parent="1" source="szoef-TnUOMJRLs9W9GJ-17" target="szoef-TnUOMJRLs9W9GJ-15" edge="1">
          <mxGeometry relative="1" as="geometry">
            <mxPoint x="550" y="450" as="sourcePoint" />
            <mxPoint x="470" y="450" as="targetPoint" />
            <mxPoint as="offset" />
          </mxGeometry>
        </mxCell>
        <mxCell id="szoef-TnUOMJRLs9W9GJ-24" value="OK" style="html=1;verticalAlign=bottom;endArrow=open;dashed=1;endSize=8;edgeStyle=elbowEdgeStyle;elbow=vertical;curved=0;rounded=0;" parent="1" source="szoef-TnUOMJRLs9W9GJ-19" target="szoef-TnUOMJRLs9W9GJ-15" edge="1">
          <mxGeometry relative="1" as="geometry">
            <mxPoint x="550" y="450" as="sourcePoint" />
            <mxPoint x="470" y="450" as="targetPoint" />
          </mxGeometry>
        </mxCell>
        <mxCell id="szoef-TnUOMJRLs9W9GJ-26" value="OK" style="html=1;verticalAlign=bottom;endArrow=block;edgeStyle=elbowEdgeStyle;elbow=vertical;curved=0;rounded=0;" parent="1" source="szoef-TnUOMJRLs9W9GJ-12" target="szoef-TnUOMJRLs9W9GJ-15" edge="1">
          <mxGeometry width="80" relative="1" as="geometry">
            <mxPoint x="470" y="650" as="sourcePoint" />
            <mxPoint x="525" y="650" as="targetPoint" />
            <Array as="points">
              <mxPoint x="440" y="820" />
              <mxPoint x="410" y="760" />
              <mxPoint x="390" y="740" />
              <mxPoint x="440" y="650" />
            </Array>
          </mxGeometry>
        </mxCell>
        <mxCell id="szoef-TnUOMJRLs9W9GJ-28" value="START A THREAD TO HANDLE THE MAINTENANCE TO RECEIVE RESPONSE FROM ALL" style="text;html=1;strokeColor=none;fillColor=none;align=left;verticalAlign=top;whiteSpace=wrap;rounded=0;" parent="1" vertex="1">
          <mxGeometry x="10" y="400" width="130" height="80" as="geometry" />
        </mxCell>
        <mxCell id="szoef-TnUOMJRLs9W9GJ-32" value="askForMaintenance" style="html=1;verticalAlign=bottom;startArrow=oval;startFill=1;endArrow=block;startSize=8;edgeStyle=elbowEdgeStyle;elbow=vertical;curved=0;rounded=0;" parent="1" target="szoef-TnUOMJRLs9W9GJ-33" edge="1">
          <mxGeometry width="60" relative="1" as="geometry">
            <mxPoint x="210" y="650.37" as="sourcePoint" />
            <mxPoint x="345" y="650" as="targetPoint" />
          </mxGeometry>
        </mxCell>
        <mxCell id="szoef-TnUOMJRLs9W9GJ-34" value="MAINTENANCE" style="html=1;verticalAlign=bottom;endArrow=block;edgeStyle=elbowEdgeStyle;elbow=vertical;curved=0;rounded=0;" parent="1" source="szoef-TnUOMJRLs9W9GJ-33" target="szoef-TnUOMJRLs9W9GJ-35" edge="1">
          <mxGeometry width="80" relative="1" as="geometry">
            <mxPoint x="430" y="670" as="sourcePoint" />
            <mxPoint x="510" y="670" as="targetPoint" />
            <Array as="points">
              <mxPoint x="470" y="650" />
            </Array>
          </mxGeometry>
        </mxCell>
        <mxCell id="szoef-TnUOMJRLs9W9GJ-36" value="MAINTENANCE" style="html=1;verticalAlign=bottom;endArrow=block;edgeStyle=elbowEdgeStyle;elbow=vertical;curved=0;rounded=0;" parent="1" source="szoef-TnUOMJRLs9W9GJ-33" target="szoef-TnUOMJRLs9W9GJ-37" edge="1">
          <mxGeometry width="80" relative="1" as="geometry">
            <mxPoint x="430" y="670" as="sourcePoint" />
            <mxPoint x="510" y="670" as="targetPoint" />
            <Array as="points">
              <mxPoint x="590" y="670" />
            </Array>
          </mxGeometry>
        </mxCell>
        <mxCell id="szoef-TnUOMJRLs9W9GJ-38" value="MAINTENANCE" style="html=1;verticalAlign=bottom;endArrow=block;edgeStyle=elbowEdgeStyle;elbow=vertical;curved=0;rounded=0;" parent="1" source="szoef-TnUOMJRLs9W9GJ-33" target="szoef-TnUOMJRLs9W9GJ-39" edge="1">
          <mxGeometry width="80" relative="1" as="geometry">
            <mxPoint x="430" y="670" as="sourcePoint" />
            <mxPoint x="510" y="670" as="targetPoint" />
            <Array as="points">
              <mxPoint x="210" y="680" />
            </Array>
          </mxGeometry>
        </mxCell>
        <mxCell id="szoef-TnUOMJRLs9W9GJ-40" value="QUEUE=[3,2]" style="text;html=1;strokeColor=none;fillColor=none;align=left;verticalAlign=top;whiteSpace=wrap;rounded=0;" parent="1" vertex="1">
          <mxGeometry x="180" y="690" width="140" height="80" as="geometry" />
        </mxCell>
        <mxCell id="szoef-TnUOMJRLs9W9GJ-41" value="OK" style="html=1;verticalAlign=bottom;endArrow=open;dashed=1;endSize=8;edgeStyle=elbowEdgeStyle;elbow=vertical;curved=0;rounded=0;" parent="1" source="szoef-TnUOMJRLs9W9GJ-37" target="szoef-TnUOMJRLs9W9GJ-33" edge="1">
          <mxGeometry relative="1" as="geometry">
            <mxPoint x="510" y="670" as="sourcePoint" />
            <mxPoint x="430" y="670" as="targetPoint" />
            <Array as="points">
              <mxPoint x="460" y="690" />
            </Array>
          </mxGeometry>
        </mxCell>
        <mxCell id="szoef-TnUOMJRLs9W9GJ-42" value="IF IN WAITING, COMPARE TIMESTAMP, IF MINE LOWER, SEND OK&lt;br&gt;(HERE 3.ts &amp;gt; 2.ts)&lt;br&gt;&lt;br&gt;QUEUE = [2]" style="text;html=1;strokeColor=none;fillColor=none;align=left;verticalAlign=top;whiteSpace=wrap;rounded=0;" parent="1" vertex="1">
          <mxGeometry x="550" y="700" width="140" height="90" as="geometry" />
        </mxCell>
        <mxCell id="szoef-TnUOMJRLs9W9GJ-45" value="OK" style="html=1;verticalAlign=bottom;endArrow=block;edgeStyle=elbowEdgeStyle;elbow=vertical;curved=0;rounded=0;" parent="1" source="szoef-TnUOMJRLs9W9GJ-12" target="szoef-TnUOMJRLs9W9GJ-33" edge="1">
          <mxGeometry width="80" relative="1" as="geometry">
            <mxPoint x="410" y="690" as="sourcePoint" />
            <mxPoint x="490" y="690" as="targetPoint" />
            <Array as="points">
              <mxPoint x="280" y="840" />
            </Array>
          </mxGeometry>
        </mxCell>
        <mxCell id="szoef-TnUOMJRLs9W9GJ-49" value="RETRY AFTER X SECONDS TO ALL THAT DIDN&#39;T OKED, IF NO RESPONSE AGAIN, REMOVE FROM ROBOT LIST, AND IF DON&#39;T NEED OTHER REPLIES, USE RESOURCE. IF RESPONSE MEANS IS USING OR IN QUEUE" style="text;html=1;strokeColor=none;fillColor=none;align=left;verticalAlign=top;whiteSpace=wrap;rounded=0;" parent="1" vertex="1">
          <mxGeometry x="550" y="860" width="260" height="90" as="geometry" />
        </mxCell>
        <mxCell id="szoef-TnUOMJRLs9W9GJ-50" value="MAINTENANCE" style="html=1;verticalAlign=bottom;endArrow=block;edgeStyle=elbowEdgeStyle;elbow=vertical;curved=0;rounded=0;" parent="1" source="szoef-TnUOMJRLs9W9GJ-47" edge="1">
          <mxGeometry width="80" relative="1" as="geometry">
            <mxPoint x="410" y="770" as="sourcePoint" />
            <mxPoint x="490" y="910" as="targetPoint" />
            <Array as="points">
              <mxPoint x="460" y="910" />
            </Array>
          </mxGeometry>
        </mxCell>
        <mxCell id="szoef-TnUOMJRLs9W9GJ-53" value="QUEUE=[ ]" style="text;html=1;strokeColor=none;fillColor=none;align=left;verticalAlign=top;whiteSpace=wrap;rounded=0;" parent="1" vertex="1">
          <mxGeometry x="160" y="850" width="140" height="80" as="geometry" />
        </mxCell>
        <mxCell id="szoef-TnUOMJRLs9W9GJ-57" value="LEAVE" style="html=1;verticalAlign=bottom;endArrow=block;edgeStyle=elbowEdgeStyle;elbow=vertical;curved=0;rounded=0;" parent="1" source="szoef-TnUOMJRLs9W9GJ-56" target="szoef-TnUOMJRLs9W9GJ-58" edge="1">
          <mxGeometry width="80" relative="1" as="geometry">
            <mxPoint x="450" y="1280" as="sourcePoint" />
            <mxPoint x="530" y="1280" as="targetPoint" />
            <Array as="points">
              <mxPoint x="430" y="1210" />
              <mxPoint x="520" y="1190" />
            </Array>
          </mxGeometry>
        </mxCell>
        <mxCell id="szoef-TnUOMJRLs9W9GJ-61" value="askForMaintenance" style="html=1;verticalAlign=bottom;startArrow=oval;startFill=1;endArrow=block;startSize=8;edgeStyle=elbowEdgeStyle;elbow=vertical;curved=0;rounded=0;" parent="1" target="szoef-TnUOMJRLs9W9GJ-60" edge="1">
          <mxGeometry width="60" relative="1" as="geometry">
            <mxPoint x="560" y="1010" as="sourcePoint" />
            <mxPoint x="520" y="1030" as="targetPoint" />
            <Array as="points">
              <mxPoint x="583" y="1010" />
            </Array>
          </mxGeometry>
        </mxCell>
        <mxCell id="szoef-TnUOMJRLs9W9GJ-62" value="quit" style="html=1;verticalAlign=bottom;startArrow=oval;startFill=1;endArrow=block;startSize=8;edgeStyle=elbowEdgeStyle;elbow=vertical;curved=0;rounded=0;" parent="1" target="szoef-TnUOMJRLs9W9GJ-56" edge="1">
          <mxGeometry width="60" relative="1" as="geometry">
            <mxPoint x="230" y="1170" as="sourcePoint" />
            <mxPoint x="520" y="1100" as="targetPoint" />
          </mxGeometry>
        </mxCell>
        <mxCell id="szoef-TnUOMJRLs9W9GJ-63" value="MAINTENANCE" style="html=1;verticalAlign=bottom;endArrow=block;edgeStyle=elbowEdgeStyle;elbow=vertical;curved=0;rounded=0;" parent="1" source="szoef-TnUOMJRLs9W9GJ-60" edge="1">
          <mxGeometry width="80" relative="1" as="geometry">
            <mxPoint x="450" y="1030" as="sourcePoint" />
            <mxPoint x="530" y="1030" as="targetPoint" />
          </mxGeometry>
        </mxCell>
        <mxCell id="szoef-TnUOMJRLs9W9GJ-64" value="MAINTENANCE" style="html=1;verticalAlign=bottom;endArrow=block;edgeStyle=elbowEdgeStyle;elbow=vertical;curved=0;rounded=0;" parent="1" source="szoef-TnUOMJRLs9W9GJ-60" target="szoef-TnUOMJRLs9W9GJ-67" edge="1">
          <mxGeometry width="80" relative="1" as="geometry">
            <mxPoint x="450" y="1030" as="sourcePoint" />
            <mxPoint x="390" y="1050" as="targetPoint" />
            <Array as="points">
              <mxPoint x="570" y="1050" />
            </Array>
          </mxGeometry>
        </mxCell>
        <mxCell id="szoef-TnUOMJRLs9W9GJ-65" value="MAINTENANCE" style="html=1;verticalAlign=bottom;endArrow=block;edgeStyle=elbowEdgeStyle;elbow=vertical;curved=0;rounded=0;" parent="1" source="szoef-TnUOMJRLs9W9GJ-60" target="szoef-TnUOMJRLs9W9GJ-66" edge="1">
          <mxGeometry width="80" relative="1" as="geometry">
            <mxPoint x="450" y="1020" as="sourcePoint" />
            <mxPoint x="530" y="1020" as="targetPoint" />
            <Array as="points">
              <mxPoint x="210" y="1070" />
            </Array>
          </mxGeometry>
        </mxCell>
        <mxCell id="szoef-TnUOMJRLs9W9GJ-68" value="QUEUE=[4]" style="text;html=1;strokeColor=none;fillColor=none;align=left;verticalAlign=top;whiteSpace=wrap;rounded=0;" parent="1" vertex="1">
          <mxGeometry x="370" y="1070" width="140" height="30" as="geometry" />
        </mxCell>
        <mxCell id="szoef-TnUOMJRLs9W9GJ-69" value="OK" style="html=1;verticalAlign=bottom;endArrow=open;dashed=1;endSize=8;edgeStyle=elbowEdgeStyle;elbow=vertical;curved=0;rounded=0;" parent="1" source="szoef-TnUOMJRLs9W9GJ-66" target="szoef-TnUOMJRLs9W9GJ-60" edge="1">
          <mxGeometry relative="1" as="geometry">
            <mxPoint x="530" y="1120" as="sourcePoint" />
            <mxPoint x="450" y="1120" as="targetPoint" />
            <Array as="points">
              <mxPoint x="670" y="1120" />
            </Array>
          </mxGeometry>
        </mxCell>
        <mxCell id="szoef-TnUOMJRLs9W9GJ-72" value="LEAVE" style="html=1;verticalAlign=bottom;endArrow=block;edgeStyle=elbowEdgeStyle;elbow=vertical;curved=0;rounded=0;" parent="1" source="szoef-TnUOMJRLs9W9GJ-56" target="szoef-TnUOMJRLs9W9GJ-73" edge="1">
          <mxGeometry width="80" relative="1" as="geometry">
            <mxPoint x="450" y="1090" as="sourcePoint" />
            <mxPoint x="530" y="1090" as="targetPoint" />
            <Array as="points">
              <mxPoint x="270" y="1230" />
            </Array>
          </mxGeometry>
        </mxCell>
        <mxCell id="szoef-TnUOMJRLs9W9GJ-74" value="OK" style="html=1;verticalAlign=bottom;endArrow=block;edgeStyle=elbowEdgeStyle;elbow=vertical;curved=0;rounded=0;" parent="1" source="szoef-TnUOMJRLs9W9GJ-51" target="szoef-TnUOMJRLs9W9GJ-60" edge="1">
          <mxGeometry width="80" relative="1" as="geometry">
            <mxPoint x="450" y="1170" as="sourcePoint" />
            <mxPoint x="530" y="1170" as="targetPoint" />
            <Array as="points">
              <mxPoint x="590" y="1180" />
            </Array>
          </mxGeometry>
        </mxCell>
        <mxCell id="szoef-TnUOMJRLs9W9GJ-81" value=":RobotNetwork&lt;br&gt;[5]" style="shape=umlLifeline;perimeter=lifelinePerimeter;whiteSpace=wrap;html=1;container=1;dropTarget=0;collapsible=0;recursiveResize=0;outlineConnect=0;portConstraint=eastwest;newEdgeStyle={&quot;edgeStyle&quot;:&quot;elbowEdgeStyle&quot;,&quot;elbow&quot;:&quot;vertical&quot;,&quot;curved&quot;:0,&quot;rounded&quot;:0};" parent="1" vertex="1">
          <mxGeometry x="750" y="1180" width="100" height="300" as="geometry" />
        </mxCell>
        <mxCell id="szoef-TnUOMJRLs9W9GJ-84" value="" style="html=1;points=[];perimeter=orthogonalPerimeter;outlineConnect=0;targetShapes=umlLifeline;portConstraint=eastwest;newEdgeStyle={&quot;edgeStyle&quot;:&quot;elbowEdgeStyle&quot;,&quot;elbow&quot;:&quot;vertical&quot;,&quot;curved&quot;:0,&quot;rounded&quot;:0};" parent="szoef-TnUOMJRLs9W9GJ-81" vertex="1">
          <mxGeometry x="45" y="60" width="10" height="110" as="geometry" />
        </mxCell>
        <mxCell id="MS7MLj-lTrGI62MglVnT-5" value="" style="html=1;points=[];perimeter=orthogonalPerimeter;outlineConnect=0;targetShapes=umlLifeline;portConstraint=eastwest;newEdgeStyle={&quot;edgeStyle&quot;:&quot;elbowEdgeStyle&quot;,&quot;elbow&quot;:&quot;vertical&quot;,&quot;curved&quot;:0,&quot;rounded&quot;:0};" vertex="1" parent="szoef-TnUOMJRLs9W9GJ-81">
          <mxGeometry x="45" y="240" width="10" height="40" as="geometry" />
        </mxCell>
        <mxCell id="szoef-TnUOMJRLs9W9GJ-82" value="MAINTENANCE" style="html=1;verticalAlign=bottom;endArrow=block;edgeStyle=elbowEdgeStyle;elbow=vertical;curved=0;rounded=0;" parent="1" source="MS7MLj-lTrGI62MglVnT-1" edge="1">
          <mxGeometry width="80" relative="1" as="geometry">
            <mxPoint x="712.5" y="1400" as="sourcePoint" />
            <mxPoint x="537.5" y="1400" as="targetPoint" />
            <Array as="points">
              <mxPoint x="647.5" y="1400" />
              <mxPoint x="567.5" y="1390" />
            </Array>
          </mxGeometry>
        </mxCell>
        <mxCell id="szoef-TnUOMJRLs9W9GJ-85" value="WELCOME" style="html=1;verticalAlign=bottom;endArrow=block;edgeStyle=elbowEdgeStyle;elbow=vertical;curved=0;rounded=0;" parent="1" source="szoef-TnUOMJRLs9W9GJ-84" target="szoef-TnUOMJRLs9W9GJ-86" edge="1">
          <mxGeometry width="80" relative="1" as="geometry">
            <mxPoint x="470" y="1120" as="sourcePoint" />
            <mxPoint x="550" y="1120" as="targetPoint" />
          </mxGeometry>
        </mxCell>
        <mxCell id="szoef-TnUOMJRLs9W9GJ-87" value="WELCOME" style="html=1;verticalAlign=bottom;endArrow=block;edgeStyle=elbowEdgeStyle;elbow=vertical;curved=0;rounded=0;" parent="1" source="szoef-TnUOMJRLs9W9GJ-84" target="szoef-TnUOMJRLs9W9GJ-88" edge="1">
          <mxGeometry x="0.0013" width="80" relative="1" as="geometry">
            <mxPoint x="470" y="1120" as="sourcePoint" />
            <mxPoint x="550" y="1120" as="targetPoint" />
            <Array as="points">
              <mxPoint x="500" y="1280" />
              <mxPoint x="710" y="1270" />
            </Array>
            <mxPoint as="offset" />
          </mxGeometry>
        </mxCell>
        <mxCell id="szoef-TnUOMJRLs9W9GJ-91" value="WELCOME" style="html=1;verticalAlign=bottom;endArrow=block;edgeStyle=elbowEdgeStyle;elbow=vertical;curved=0;rounded=0;" parent="1" source="szoef-TnUOMJRLs9W9GJ-84" target="szoef-TnUOMJRLs9W9GJ-92" edge="1">
          <mxGeometry width="80" relative="1" as="geometry">
            <mxPoint x="470" y="1260" as="sourcePoint" />
            <mxPoint x="550" y="1260" as="targetPoint" />
            <Array as="points">
              <mxPoint x="780" y="1240" />
            </Array>
          </mxGeometry>
        </mxCell>
        <mxCell id="szoef-TnUOMJRLs9W9GJ-93" value="WELCOME" style="html=1;verticalAlign=bottom;endArrow=block;edgeStyle=elbowEdgeStyle;elbow=vertical;curved=0;rounded=0;" parent="1" source="szoef-TnUOMJRLs9W9GJ-84" edge="1">
          <mxGeometry width="80" relative="1" as="geometry">
            <mxPoint x="470" y="1260" as="sourcePoint" />
            <mxPoint x="540" y="1260" as="targetPoint" />
            <Array as="points">
              <mxPoint x="550" y="1260" />
            </Array>
          </mxGeometry>
        </mxCell>
        <mxCell id="szoef-TnUOMJRLs9W9GJ-97" value="QUEUE=[ ]" style="text;html=1;strokeColor=none;fillColor=none;align=left;verticalAlign=top;whiteSpace=wrap;rounded=0;" parent="1" vertex="1">
          <mxGeometry x="360" y="1180" width="140" height="30" as="geometry" />
        </mxCell>
        <mxCell id="MS7MLj-lTrGI62MglVnT-4" value="MAINTENANCE" style="html=1;verticalAlign=bottom;endArrow=block;edgeStyle=elbowEdgeStyle;elbow=vertical;curved=0;rounded=0;" edge="1" parent="1" source="MS7MLj-lTrGI62MglVnT-1" target="MS7MLj-lTrGI62MglVnT-5">
          <mxGeometry width="80" relative="1" as="geometry">
            <mxPoint x="510" y="1460" as="sourcePoint" />
            <mxPoint x="590" y="1460" as="targetPoint" />
            <Array as="points">
              <mxPoint x="755" y="1420" />
            </Array>
            <mxPoint as="offset" />
          </mxGeometry>
        </mxCell>
        <mxCell id="MS7MLj-lTrGI62MglVnT-6" value="OK" style="html=1;verticalAlign=bottom;endArrow=open;dashed=1;endSize=8;edgeStyle=elbowEdgeStyle;elbow=horizontal;curved=0;rounded=0;" edge="1" parent="1" source="MS7MLj-lTrGI62MglVnT-5" target="MS7MLj-lTrGI62MglVnT-1">
          <mxGeometry relative="1" as="geometry">
            <mxPoint x="590" y="1460" as="sourcePoint" />
            <mxPoint x="510" y="1460" as="targetPoint" />
            <Array as="points">
              <mxPoint x="755" y="1450" />
            </Array>
          </mxGeometry>
        </mxCell>
      </root>
    </mxGraphModel>
  </diagram>
</mxfile>
